{
  "title": "X-Men Apocalypse (2016) HQ 1080p Blu-ray x264 DTS-HD 7.1 EN - DT",
  "uid": 15801638,
  "size": 17516297497,
  "categoryP": "video",
  "categoryS": "hd___movies",
  "magnet": "?xt=urn:btih:01143027a095b319e4e0ecddaf890a34e559a090&amp;dn=X-Men+Apocalypse+%282016%29+HQ+1080p+Blu-ray+x264+DTS-HD+7.1+EN+-+DT&amp;tr=udp%3A%2F%2Ftracker.leechers-paradise.org%3A6969&amp;tr=udp%3A%2F%2Fzer0day.ch%3A1337&amp;tr=udp%3A%2F%2Fopen.demonii.com%3A1337&amp;tr=udp%3A%2F%2Ftracker.coppersurfer.tk%3A6969&amp;tr=udp%3A%2F%2Fexodus.desync.com%3A6969",
  "seeders": 129,
  "leechers": 78,
  "uploader": "SaM",
  "files": 3,
  "time": 1473511784,
  "description": "\n1080p Blu-ray Rip x264\r\n\r\nEnglish DTS-HDMA 7.1 Audio\r\n\r\nFrançais DTS 5.1 Audio\r\n\r\n\r\n\r\nEnglish, French, Italian, German, Dutch, Turkish + SDH Subtitles\r\n\r\n \nhttp://extraimago.com/image/wiGL \nhttp://extraimago.com/image/wiGy \nhttp://extraimago.com/image/wiGq \nhttp://extraimago.com/image/wiGS \nhttp://extraimago.com/image/wiGO \nhttp://extraimago.com/image/wiGE \nhttp://extraimago.com/image/wiG1 \nhttp://extraimago.com/image/wiGc \nhttp://extraimago.com/image/wiG7 \nhttp://extraimago.com/image/wiGs \nhttp://extraimago.com/image/wiGn \nhttp://extraimago.com/image/wiGj \nhttp://extraimago.com/image/wiGT \nhttp://extraimago.com/image/wiGN \nhttp://extraimago.com/image/wiG2\r\n\r\n\r\nSpecs:\r\nSource: BD50 @ TRUEDEF\r\n\r\nFormat : Matroska\r\nFile size : 16.2 GiB\r\nDuration : 2 h 23 min\r\nOverall bit rate : 16.1 Mb/s\r\n\r\nVideo\r\nFormat : AVC\r\nFormat/Info : Advanced Video Codec\r\nFormat profile :   \r\nFormat settings, CABAC : Yes\r\nFormat settings, ReFrames : 5 frames\r\nCodec ID : V_MPEG4/ISO/AVC\r\nDuration : 2 h 23 min\r\nBit rate : 10 000 kb/s\r\nWidth : 1 920 pixels\r\nHeight : 800 pixels\r\nDisplay aspect ratio : 2.40:1\r\nFrame rate mode : Constant\r\nFrame rate : 23.976 (24000/1001) FPS\r\nColor space : YUV\r\nChroma subsampling : 4:2:0\r\nBit depth : 8 bits\r\nScan type : Progressive\r\nBits/(Pixel*Frame) : 0.272\r\nStream size : 10.1 GiB (62%)\r\n\r\nAudio #1\r\nID : 2\r\nFormat : DTS\r\nFormat/Info : Digital Theater Systems\r\nFormat profile : MA / ES Matrix / Core\r\nMode : 16\r\nFormat settings, Endianness : Big\r\nCodec ID : A_DTS\r\nDuration : 2 h 23 min\r\nBit rate mode : Variable / Constant / Constant\r\nBit rate : 5 216 kb/s / 1 509 kb/s / 1 509 kb/s\r\nChannel(s) : 8 channels / 7 channels / 6 channels\r\nChannel positions : Front: L C R, Side: L R, Back: L R, LFE / Front: L C R, Side: L R, Back: C, LFE / Front: L C R, Side: L R, LFE\r\nSampling rate : 48.0 kHz\r\nFrame rate : 93.750 FPS (512 spf)\r\nBit depth : 24 bits\r\nCompression mode : Lossless / Lossy / Lossy\r\nStream size : 5.24 GiB (32%)\r\nLanguage : English\r\nDefault : Yes\r\nForced : No\r\n\r\nAudio #2\r\nID : 3\r\nFormat : DTS\r\nFormat/Info : Digital Theater Systems\r\nMode : 16\r\nFormat settings, Endianness : Big\r\nCodec ID : A_DTS\r\nDuration : 2 h 23 min\r\nBit rate mode : Constant\r\nBit rate : 768 kb/s\r\nChannel(s) : 6 channels\r\nChannel positions : Front: L C R, Side: L R, LFE\r\nSampling rate : 48.0 kHz\r\nFrame rate : 93.750 FPS (512 spf)\r\nBit depth : 24 bits\r\nCompression mode : Lossy\r\nStream size : 791 MiB (5%)\r\nLanguage : French\r\nDefault : No\r\nForced : No\r\n\r\nChapters = YES",
  "parsed": {
    "xt": "urn:btih:01143027a095b319e4e0ecddaf890a34e559a090",
    "dn": "X-Men Apocalypse (2016) HQ 1080p Blu-ray x264 DTS-HD 7.1 EN - DT",
    "tr": [
      "udp://exodus.desync.com:6969",
      "udp://open.demonii.com:1337",
      "udp://tracker.coppersurfer.tk:6969",
      "udp://tracker.leechers-paradise.org:6969",
      "udp://zer0day.ch:1337"
    ],
    "infoHash": "01143027a095b319e4e0ecddaf890a34e559a090",
    "infoHashBuffer": {
      "type": "Buffer",
      "data": [
        1,
        20,
        48,
        39,
        160,
        149,
        179,
        25,
        228,
        224,
        236,
        221,
        175,
        137,
        10,
        52,
        229,
        89,
        160,
        144
      ]
    },
    "name": "X-Men Apocalypse (2016) HQ 1080p Blu-ray x264 DTS-HD 7.1 EN - DT",
    "announce": [
      "udp://exodus.desync.com:6969",
      "udp://open.demonii.com:1337",
      "udp://tracker.coppersurfer.tk:6969",
      "udp://tracker.leechers-paradise.org:6969",
      "udp://zer0day.ch:1337"
    ],
    "urlList": []
  },
  "previous": 207,
  "peers": 96,
  "last_updated": "2016-12-24T15:24:27.471Z"
}